<?xml version="1.0" encoding="UTF-8" standalone="no"?>
<!DOCTYPE svg PUBLIC "-//W3C//DTD SVG 20010904//EN"
              "http://www.w3.org/TR/2001/REC-SVG-20010904/DTD/svg10.dtd">

<svg xmlns="http://www.w3.org/2000/svg"
     width="4.56333in" height="0.63in"
     viewBox="0 0 1369 189">
  <path id="Selection"
        fill="none" stroke="black" stroke-width="1"
        d="M 263.00,133.00
           C 263.00,133.00 282.00,126.05 282.00,126.05
             283.92,125.36 287.61,123.92 289.59,124.67
             291.60,125.42 292.99,129.16 294.09,131.00
             296.74,135.41 300.03,139.39 304.00,142.67
             319.39,155.42 348.31,154.41 359.75,137.00
             368.81,123.23 361.24,110.89 347.00,105.69
             333.10,100.63 309.20,95.91 298.00,86.67
             293.68,83.11 288.91,78.02 286.38,73.00
             277.06,54.55 282.12,27.82 298.01,14.46
             319.99,-4.01 361.30,-5.34 384.00,12.52
             392.23,18.99 396.92,26.54 401.00,36.00
             401.00,36.00 373.00,46.00 373.00,46.00
             368.41,31.47 354.85,23.46 340.00,24.04
             327.79,24.52 314.05,31.38 313.10,45.00
             311.83,63.09 336.78,67.31 350.00,71.28
             359.48,74.12 368.84,76.93 377.00,82.79
             392.12,93.63 397.09,112.28 393.33,130.00
             391.82,137.10 388.69,144.00 384.64,150.00
             370.35,171.16 347.72,175.27 324.00,175.00
             312.79,174.87 297.61,171.36 288.00,165.54
             275.29,157.84 267.82,146.80 263.00,133.00 Z
           M 8.00,4.00
           C 8.00,4.00 123.00,4.00 123.00,4.00
             122.46,8.03 120.29,23.14 118.83,26.00
             117.35,28.90 109.60,36.60 106.75,40.00
             106.75,40.00 83.42,70.00 83.42,70.00
             65.12,95.91 46.10,138.88 46.00,171.00
             46.00,171.00 12.00,171.00 12.00,171.00
             12.35,163.44 16.77,147.76 19.00,140.00
             29.10,104.81 48.83,74.36 74.04,48.00
             74.04,48.00 93.00,30.00 93.00,30.00
             93.00,30.00 1.00,30.00 1.00,30.00
             1.00,30.00 8.00,4.00 8.00,4.00 Z
           M 142.00,30.00
           C 142.00,30.00 147.33,12.00 147.33,12.00
             147.33,12.00 150.70,4.99 150.70,4.99
             150.70,4.99 158.00,4.00 158.00,4.00
             158.00,4.00 264.00,4.00 264.00,4.00
             263.91,8.09 262.05,22.57 260.49,25.91
             259.51,28.01 250.51,37.42 248.28,40.00
             248.28,40.00 226.34,68.00 226.34,68.00
             205.05,99.28 190.09,132.90 187.00,171.00
             187.00,171.00 153.00,171.00 153.00,171.00
             162.26,121.77 180.18,83.83 216.00,48.00
             221.94,42.05 228.38,35.01 235.00,30.00
             235.00,30.00 142.00,30.00 142.00,30.00 Z
           M 440.00,14.00
           C 440.00,14.00 465.00,12.00 465.00,12.00
             465.00,12.00 460.00,48.00 460.00,48.00
             460.00,48.00 486.00,48.00 486.00,48.00
             486.00,48.00 483.00,71.00 483.00,71.00
             483.00,71.00 465.00,71.00 465.00,71.00
             462.80,71.00 459.17,70.79 457.31,72.02
             454.13,74.13 452.99,87.85 452.20,92.00
             452.20,92.00 446.59,124.00 446.59,124.00
             445.89,128.34 444.29,136.98 445.51,141.00
             447.55,147.73 455.64,150.21 462.00,149.90
             465.08,149.75 468.06,148.85 471.00,148.00
             471.00,148.00 468.00,171.00 468.00,171.00
             468.00,171.00 451.00,173.00 451.00,173.00
             436.62,173.16 422.24,169.67 417.79,154.00
             416.86,150.76 416.97,147.34 417.00,144.00
             417.00,144.00 420.59,118.00 420.59,118.00
             420.59,118.00 429.00,71.00 429.00,71.00
             429.00,71.00 411.00,71.00 411.00,71.00
             411.00,71.00 414.00,48.00 414.00,48.00
             414.00,48.00 431.57,46.98 431.57,46.98
             431.57,46.98 435.12,38.00 435.12,38.00
             435.12,38.00 440.00,14.00 440.00,14.00 Z
           M 717.00,73.00
           C 725.28,50.60 750.31,42.97 772.00,43.00
             789.64,43.03 809.66,48.72 817.68,66.00
             823.27,78.05 820.30,91.47 818.25,104.00
             814.60,126.28 809.00,148.33 809.00,171.00
             809.00,171.00 782.04,171.00 782.04,171.00
             782.04,171.00 782.04,161.00 782.04,161.00
             782.04,161.00 783.00,146.00 783.00,146.00
             781.41,151.42 778.79,154.91 774.91,158.99
             756.48,178.37 718.54,179.14 706.88,152.00
             705.26,148.24 704.21,143.09 704.04,139.00
             703.83,134.05 704.48,128.69 706.10,124.00
             708.28,117.69 711.23,113.65 716.00,109.04
             721.61,103.64 728.64,99.83 736.00,97.36
             745.10,94.29 758.41,92.01 768.00,92.00
             768.00,92.00 793.00,92.00 793.00,92.00
             793.48,86.13 794.79,82.88 792.39,77.00
             786.42,62.39 765.02,61.22 753.00,68.48
             747.24,71.95 744.66,75.59 741.00,81.00
             741.00,81.00 717.00,73.00 717.00,73.00 Z
           M 886.00,71.00
           C 892.39,48.64 924.00,34.43 943.96,48.25
             952.77,54.35 953.92,62.76 957.00,72.00
             963.12,59.51 975.33,47.99 989.00,44.48
             1013.32,38.23 1035.99,52.53 1034.96,79.00
             1034.96,79.00 1023.92,149.00 1023.92,149.00
             1023.92,149.00 1021.41,164.00 1021.41,164.00
             1021.09,165.86 1020.82,168.76 1019.26,170.01
             1017.71,171.26 1013.95,171.00 1012.00,171.00
             1012.00,171.00 992.00,171.00 992.00,171.00
             992.00,171.00 998.92,126.00 998.92,126.00
             998.92,126.00 1003.65,98.00 1003.65,98.00
             1004.94,90.89 1007.00,81.66 1003.65,75.09
             996.51,61.42 978.00,66.11 969.30,75.09
             954.04,91.06 951.37,125.72 947.39,147.00
             947.39,147.00 944.59,163.00 944.59,163.00
             944.24,165.02 943.92,168.68 942.26,170.01
             940.71,171.26 936.95,171.00 935.00,171.00
             935.00,171.00 916.00,171.00 916.00,171.00
             916.00,171.00 923.08,128.00 923.08,128.00
             923.08,128.00 928.00,99.00 928.00,99.00
             929.19,91.32 931.61,81.25 928.00,74.02
             926.26,70.27 923.89,68.46 920.00,67.11
             908.84,63.21 897.99,71.92 891.33,80.00
             886.61,85.72 884.30,93.05 882.00,100.00
             877.30,114.22 874.41,133.93 871.92,149.00
             871.92,149.00 869.41,164.00 869.41,164.00
             869.09,165.86 868.82,168.76 867.26,170.01
             865.71,171.26 861.95,171.00 860.00,171.00
             860.00,171.00 840.00,171.00 840.00,171.00
             840.00,171.00 846.25,135.00 846.25,135.00
             846.25,135.00 861.00,48.00 861.00,48.00
             861.00,48.00 888.00,48.00 888.00,48.00
             888.00,48.00 886.00,71.00 886.00,71.00 Z
           M 1043.00,140.00
           C 1043.00,140.00 1060.00,135.63 1060.00,135.63
             1061.98,135.14 1065.71,133.97 1067.62,134.66
             1070.62,135.76 1072.16,141.47 1079.00,146.36
             1089.77,154.08 1111.08,154.69 1119.35,142.98
             1128.08,130.64 1110.97,124.42 1102.00,121.72
             1094.54,119.47 1080.04,115.43 1074.00,111.20
             1053.77,97.03 1054.66,68.64 1073.00,53.33
             1093.20,36.47 1130.26,40.62 1147.96,59.00
             1152.00,63.19 1155.22,67.42 1157.00,73.00
             1157.00,73.00 1142.00,78.02 1142.00,78.02
             1139.94,78.65 1136.45,80.06 1134.37,79.33
             1132.65,78.73 1127.91,72.85 1126.00,71.10
             1121.29,66.81 1115.36,64.48 1109.00,64.09
             1099.69,63.52 1081.07,70.93 1088.74,82.98
             1093.15,89.92 1104.60,91.56 1112.00,94.00
             1125.92,98.60 1143.01,103.98 1148.88,119.00
             1150.92,124.19 1151.06,128.54 1151.00,134.00
             1150.79,152.33 1137.13,165.97 1120.00,170.37
             1097.99,176.03 1069.56,174.15 1053.04,157.00
             1048.32,152.09 1044.66,146.65 1043.00,140.00 Z
           M 531.00,80.00
           C 532.64,74.25 535.67,68.92 539.03,64.00
             549.14,49.17 558.29,44.00 576.00,44.00
             576.00,44.00 572.00,75.00 572.00,75.00
             556.71,71.28 541.13,81.09 533.47,94.00
             528.02,103.19 525.38,119.31 523.59,130.00
             523.59,130.00 517.00,171.00 517.00,171.00
             517.00,171.00 489.00,171.00 489.00,171.00
             489.00,171.00 495.25,135.00 495.25,135.00
             495.25,135.00 510.00,48.00 510.00,48.00
             510.00,48.00 535.00,48.00 535.00,48.00
             535.00,48.00 531.00,80.00 531.00,80.00 Z
           M 685.00,134.00
           C 678.73,148.55 669.08,162.18 654.00,168.54
             638.44,175.09 615.45,174.76 601.00,165.45
             586.27,155.96 580.26,141.83 578.92,125.00
             578.65,121.71 577.94,119.38 578.18,116.00
             579.51,97.38 583.85,79.54 596.30,65.00
             601.79,58.59 608.31,52.92 616.00,49.32
             634.97,40.45 663.09,41.90 677.83,58.01
             687.86,68.97 691.93,86.44 692.00,101.00
             692.05,111.34 692.40,111.98 683.00,112.00
             683.00,112.00 606.00,112.00 606.00,112.00
             605.53,122.19 604.05,129.78 610.64,139.00
             624.43,158.33 649.66,151.15 660.00,128.00
             660.00,128.00 685.00,134.00 685.00,134.00 Z
           M 666.00,94.00
           C 665.98,86.08 664.77,76.38 659.47,70.10
             650.60,59.60 631.86,61.74 622.01,69.53
             614.67,75.34 611.03,85.12 609.00,94.00
             609.00,94.00 666.00,94.00 666.00,94.00 Z
           M 1165.00,156.00
           C 1165.00,156.00 1166.92,144.00 1166.92,144.00
             1166.92,144.00 1188.87,117.00 1188.87,117.00
             1188.87,117.00 1202.00,103.02 1202.00,103.02
             1202.00,103.02 1214.00,102.00 1214.00,102.00
             1214.00,102.00 1207.00,145.00 1207.00,145.00
             1207.00,145.00 1217.00,145.00 1217.00,145.00
             1217.00,145.00 1216.00,156.00 1216.00,156.00
             1216.00,156.00 1205.00,156.00 1205.00,156.00
             1205.00,156.00 1203.00,171.00 1203.00,171.00
             1203.00,171.00 1191.00,171.00 1191.00,171.00
             1191.00,171.00 1194.00,156.00 1194.00,156.00
             1194.00,156.00 1165.00,156.00 1165.00,156.00 Z
           M 790.00,106.00
           C 790.00,106.00 765.00,108.61 765.00,108.61
             759.71,109.57 752.82,111.19 748.00,113.49
             731.99,121.15 729.03,140.12 741.04,147.36
             744.27,149.31 748.27,149.97 752.00,149.97
             766.23,149.97 777.44,140.19 783.63,128.00
             786.87,121.62 789.40,113.13 790.00,106.00 Z
           M 1201.00,117.00
           C 1201.00,117.00 1200.00,117.00 1200.00,117.00
             1200.00,117.00 1201.00,118.00 1201.00,118.00
             1201.00,118.00 1201.00,117.00 1201.00,117.00 Z
           M 1200.00,118.00
           C 1194.99,122.13 1179.60,139.48 1177.00,145.00
             1177.00,145.00 1196.00,145.00 1196.00,145.00
             1196.00,145.00 1200.00,118.00 1200.00,118.00 Z
           M 1289.00,121.47
           C 1293.18,120.88 1296.93,120.69 1301.00,122.11
             1322.41,129.55 1316.45,167.74 1294.00,171.69
             1291.62,172.09 1288.39,172.05 1286.00,171.69
             1260.43,167.93 1264.45,127.32 1289.00,121.47 Z
           M 1225.00,122.00
           C 1225.00,122.00 1237.00,122.00 1237.00,122.00
             1237.00,122.00 1244.00,154.00 1244.00,154.00
             1244.00,154.00 1254.75,133.00 1254.75,133.00
             1254.75,133.00 1260.63,122.99 1260.63,122.99
             1260.63,122.99 1270.00,122.00 1270.00,122.00
             1270.00,122.00 1248.25,166.00 1248.25,166.00
             1245.60,171.29 1240.59,181.90 1235.96,185.15
             1230.71,188.83 1224.07,188.00 1218.00,188.00
             1218.00,188.00 1219.00,179.00 1219.00,179.00
             1226.67,179.00 1234.55,178.59 1236.06,169.00
             1236.53,165.98 1233.98,158.39 1233.13,155.00
             1233.13,155.00 1225.00,122.00 1225.00,122.00 Z
           M 1351.00,163.00
           C 1348.63,165.35 1345.90,168.27 1343.00,169.91
             1336.52,173.60 1327.14,172.49 1324.01,164.98
             1321.44,158.84 1325.72,140.27 1326.92,133.00
             1327.32,130.57 1327.85,124.51 1329.74,122.99
             1331.50,121.58 1337.63,122.00 1340.00,122.00
             1340.00,122.00 1335.49,149.00 1335.49,149.00
             1334.67,152.48 1333.20,157.62 1335.49,160.57
             1339.89,165.39 1346.74,159.65 1349.35,155.98
             1352.98,150.89 1356.69,128.75 1357.00,122.00
             1357.00,122.00 1368.00,122.00 1368.00,122.00
             1368.00,122.00 1362.41,158.00 1362.41,158.00
             1362.41,158.00 1359.26,170.01 1359.26,170.01
             1359.26,170.01 1350.00,171.00 1350.00,171.00
             1350.00,171.00 1351.00,163.00 1351.00,163.00 Z
           M 1291.00,130.36
           C 1281.91,132.97 1279.29,144.45 1280.10,153.00
             1280.72,159.46 1285.36,163.81 1292.00,162.64
             1303.87,160.55 1310.08,128.99 1291.00,130.36 Z" />
</svg>
